<svg width="132" height="39" viewBox="0 0 132 39" fill="none" xmlns="http://www.w3.org/2000/svg">
<path d="M3.96309 0.702393L8.15055 13.6879L12.4398 0.702393H16.3049L10.396 18.2486H5.93333L0 0.702393H3.96309Z" fill="white"/>
<path d="M21.3164 1.98029C21.3164 2.54825 21.1241 3.02534 20.7432 3.40777C20.3624 3.79209 19.8797 3.98519 19.2971 3.98519C18.7145 3.98519 18.2281 3.79209 17.8378 3.40777C17.4475 3.02345 17.2515 2.54825 17.2515 1.98029C17.2515 1.41233 17.4475 0.940922 17.8378 0.564175C18.2281 0.187427 18.7145 0 19.2971 0C19.8797 0 20.3624 0.187427 20.7432 0.564175C21.1241 0.939029 21.3164 1.41233 21.3164 1.98029ZM21.043 5.36345V18.2486H17.5286V5.36345H21.043Z" fill="white"/>
<path d="M35.9752 18.2488H32.4608V11.4559C32.4608 9.23332 31.5954 8.12201 29.8684 8.12201C28.954 8.12201 28.2469 8.4325 27.7492 9.04968C27.2515 9.66687 27.0007 10.5358 27.0007 11.6566V18.2488H23.4863V5.36361H26.5539L26.8781 6.96716C27.3269 6.41434 27.868 5.98459 28.4996 5.67599C29.1312 5.36551 29.9136 5.21216 30.8431 5.21216C32.3382 5.21216 33.5694 5.67978 34.5328 6.61692C35.4963 7.55216 35.9789 9.09891 35.9789 11.2553V18.2507L35.9752 18.2488Z" fill="white"/>
<path d="M44.3029 18.4001C42.9737 18.4001 41.8105 18.1294 40.8131 17.586C39.8157 17.0427 39.0484 16.2702 38.5073 15.2668C37.9661 14.2634 37.6965 13.1105 37.6965 11.808C37.6965 10.5054 37.9661 9.33165 38.5073 8.33582C39.0484 7.34189 39.8195 6.57135 40.8263 6.0299C41.8312 5.48655 42.9983 5.21582 44.3293 5.21582C46.0413 5.21582 47.4365 5.65315 48.5168 6.5316C49.5971 7.41004 50.2627 8.62548 50.5115 10.1779H46.8708C46.7219 9.54368 46.4221 9.0382 45.9734 8.66145C45.5247 8.2866 44.9685 8.09728 44.3029 8.09728C43.3885 8.09728 42.6589 8.43995 42.1083 9.12529C41.5597 9.81063 41.2844 10.7042 41.2844 11.808C41.2844 12.9117 41.5578 13.8053 42.1083 14.4906C42.657 15.176 43.3885 15.5186 44.3029 15.5186C44.9836 15.5186 45.553 15.3255 46.0111 14.9431C46.4674 14.5588 46.7634 14.0325 46.8972 13.3642H50.5115C50.2796 14.9355 49.6197 16.168 48.5281 17.0616C47.4402 17.9571 46.03 18.402 44.3011 18.402L44.3029 18.4001Z" fill="white"/>
<path d="M54.812 6.0299C55.7849 5.48655 56.9105 5.21582 58.1888 5.21582C59.4671 5.21582 60.6285 5.4714 61.6164 5.98067C62.6062 6.48995 63.3774 7.20936 63.9354 8.13703C64.4935 9.0647 64.7782 10.1552 64.7952 11.4066C64.7952 11.8572 64.7631 12.2585 64.6953 12.6088H55.3965V12.7091C55.4795 13.6444 55.7792 14.3808 56.294 14.9147C56.8087 15.4505 57.5157 15.7174 58.4131 15.7174C59.1277 15.7174 59.7216 15.5641 60.1948 15.2536C60.6681 14.9431 60.9792 14.4887 61.13 13.8886H64.5953C64.4615 14.7405 64.1391 15.5092 63.6225 16.1945C63.1078 16.8798 62.4253 17.4194 61.5768 17.8113C60.7303 18.2032 59.7574 18.4001 58.6601 18.4001C57.231 18.4001 55.9961 18.1332 54.9572 17.5974C53.9184 17.0616 53.1208 16.2967 52.5628 15.3047C52.0066 14.3108 51.7275 13.1521 51.7275 11.8326C51.7275 10.513 51.9972 9.32975 52.5383 8.33582C53.0794 7.34189 53.8335 6.57135 54.8083 6.0299H54.812ZM60.3212 8.48538C59.797 8.05941 59.1371 7.84548 58.3377 7.84548C57.5383 7.84548 56.9275 8.06698 56.4052 8.50999C55.8811 8.953 55.57 9.54936 55.47 10.3029H61.2789C61.162 9.51718 60.8434 8.91135 60.3193 8.48538H60.3212Z" fill="white"/>
<path d="M79.2071 11.2553V18.2488H75.6927V11.4559C75.6927 9.23332 74.8292 8.12201 73.1003 8.12201C72.1859 8.12201 71.4789 8.4325 70.9811 9.04968C70.4834 9.66687 70.2326 10.5358 70.2326 11.6566V18.2488H66.7183V5.36361H69.7858L70.1101 6.96716C70.5588 6.41434 71.0999 5.98459 71.7315 5.67599C72.3631 5.36551 73.1456 5.21216 74.0751 5.21216C75.5702 5.21216 76.8013 5.67978 77.7648 6.61692C78.7282 7.55216 79.2109 9.09891 79.2109 11.2553H79.2071Z" fill="white"/>
<path d="M80.131 5.36357H82.2502V1.75513H85.7646V5.36547H88.6813V8.34916H85.7646V13.989C85.7646 14.4396 85.8589 14.7671 86.0512 14.9659C86.2435 15.1666 86.5621 15.2669 87.0108 15.2669H88.8302V18.2506H85.9135C83.4701 18.2506 82.2483 17.0219 82.2483 14.5664V8.34916H80.1292V5.36357H80.131Z" fill="white"/>
<path d="M38.5072 21.2493C40.2531 21.2493 41.7935 21.6222 43.1321 22.3644C44.4707 23.1084 45.5001 24.144 46.2222 25.473C46.9443 26.802 47.3063 28.3185 47.3063 30.0224C47.3063 31.7263 46.9443 33.2427 46.2222 34.5717C45.5001 35.9008 44.4688 36.9364 43.1321 37.6785C41.7935 38.4225 40.2531 38.7955 38.5072 38.7955H32.4495V21.2493H38.5072ZM42.1837 34.1212C43.0567 33.0932 43.4922 31.7263 43.4922 30.0224C43.4922 28.3185 43.0567 26.9516 42.1837 25.9236C41.3108 24.8956 40.0853 24.3825 38.5072 24.3825H36.1882V35.6622H38.5072C40.0872 35.6622 41.3108 35.1492 42.1837 34.1212Z" fill="white"/>
<path d="M61.3939 38.7955H58.2773L57.9531 37.2412C57.5043 37.777 56.9802 38.1935 56.3825 38.4945C55.7849 38.7955 55.0533 38.9451 54.1879 38.9451C52.6928 38.9451 51.4711 38.4813 50.5227 37.5536C49.5763 36.6259 49.103 35.0773 49.103 32.9039V25.9104H52.6174V32.4779C52.6174 33.6479 52.821 34.5302 53.2283 35.1227C53.6355 35.7172 54.2633 36.0125 55.1099 36.0125C55.9564 36.0125 56.6729 35.6831 57.1555 35.0224C57.6382 34.3617 57.8776 33.4378 57.8776 32.2526V25.9104H61.392V38.7955H61.3939Z" fill="white"/>
<path d="M67.5271 35.8876C68.0249 36.2379 68.6659 36.414 69.4465 36.414C70.227 36.414 70.7851 36.2928 71.2168 36.0505C71.6486 35.8081 71.8654 35.4617 71.8654 35.0111C71.8654 34.6779 71.7655 34.4261 71.5656 34.2595C71.3677 34.0929 71.083 33.9717 70.7191 33.896C70.3533 33.8203 69.7557 33.7332 68.9242 33.6328C67.7949 33.4833 66.854 33.2902 66.1074 33.0573C65.3608 32.8244 64.7613 32.4553 64.3125 31.9536C63.8638 31.4538 63.6395 30.7836 63.6395 29.9487C63.6395 29.1138 63.8676 28.3735 64.3257 27.7298C64.782 27.0861 65.4268 26.5901 66.2583 26.238C67.0897 25.8877 68.0456 25.7117 69.1241 25.7117C70.8699 25.7287 72.2783 26.1036 73.3511 26.84C74.422 27.5746 75.0008 28.595 75.0838 29.8975H71.7429C71.6938 29.4129 71.4393 29.0153 70.9812 28.7067C70.5249 28.3962 69.9385 28.2429 69.2221 28.2429C68.5584 28.2429 68.0211 28.3678 67.6139 28.6177C67.2066 28.8676 67.003 29.2027 67.003 29.6211C67.003 29.9222 67.1105 30.1474 67.3273 30.297C67.5422 30.4466 67.825 30.5564 68.1738 30.6226C68.5226 30.6889 69.1052 30.7646 69.9197 30.8479C71.6486 31.0486 72.974 31.4197 73.896 31.963C74.8179 32.5064 75.2799 33.4378 75.2799 34.7593C75.2799 35.5961 75.0348 36.3307 74.5446 36.9649C74.0544 37.601 73.3718 38.0894 72.4989 38.4321C71.626 38.7748 70.6173 38.9452 69.471 38.9452C67.693 38.9452 66.247 38.5495 65.1327 37.7543C64.0184 36.9611 63.4302 35.8782 63.3623 34.5075H66.7032C66.7522 35.0755 67.0275 35.5355 67.5271 35.8857V35.8876Z" fill="white"/>
<path d="M80.742 35.8876C81.2398 36.2379 81.8808 36.414 82.6614 36.414C83.4419 36.414 84 36.2928 84.4318 36.0505C84.8635 35.8081 85.0803 35.4617 85.0803 35.0111C85.0803 34.6779 84.9804 34.4261 84.7806 34.2595C84.5807 34.0929 84.2979 33.9717 83.934 33.896C83.5682 33.8203 82.9706 33.7332 82.1391 33.6328C81.0098 33.4833 80.069 33.2902 79.3223 33.0573C78.5757 32.8244 77.9762 32.4553 77.5275 31.9536C77.0787 31.4538 76.8544 30.7836 76.8544 29.9487C76.8544 29.1138 77.0825 28.3735 77.5406 27.7298C77.9969 27.0861 78.6417 26.5901 79.4713 26.238C80.3027 25.8877 81.2586 25.7117 82.3371 25.7117C84.083 25.7287 85.4913 26.1036 86.5641 26.84C87.635 27.5746 88.2138 28.595 88.2968 29.8975H84.9559C84.9069 29.4129 84.6523 29.0153 84.1942 28.7067C83.7379 28.3962 83.1516 28.2429 82.437 28.2429C81.7733 28.2429 81.236 28.3678 80.8288 28.6177C80.4215 28.8695 80.2179 29.2027 80.2179 29.6211C80.2179 29.9222 80.3254 30.1474 80.5422 30.297C80.7571 30.4466 81.0399 30.5564 81.3887 30.6226C81.7375 30.6889 82.3201 30.7646 83.1346 30.8479C84.8635 31.0486 86.1889 31.4197 87.1109 31.963C88.0329 32.5064 88.4948 33.4378 88.4948 34.7593C88.4948 35.5961 88.2497 36.3307 87.7595 36.9649C87.2693 37.601 86.5868 38.0894 85.7157 38.4321C84.8447 38.7748 83.8341 38.9452 82.6878 38.9452C80.9098 38.9452 79.4637 38.5495 78.3495 37.7543C77.2352 36.9592 76.647 35.8782 76.5791 34.5075H79.92C79.969 35.0755 80.2443 35.5355 80.7439 35.8857H80.7402L80.742 35.8876Z" fill="white"/>
<path d="M101.909 30.4239V38.7975H98.8191L98.5458 37.1675C98.0631 37.7525 97.5107 38.1955 96.8885 38.4965C96.2663 38.7975 95.5216 38.9471 94.6581 38.9471C93.244 38.9471 92.1185 38.6139 91.2795 37.9437C90.4386 37.2754 90.02 36.3401 90.02 35.1361C90.02 33.7673 90.5215 32.7128 91.5283 31.9763C92.5351 31.2399 94.0001 30.8726 95.9288 30.8726H98.4458V30.2213C98.4458 29.6363 98.2347 29.1763 97.8105 28.8431C97.3862 28.5099 96.8169 28.3414 96.1023 28.3414C95.4386 28.3414 94.8938 28.4834 94.4695 28.7673C94.0453 29.0513 93.7927 29.4356 93.7078 29.9203H90.3179C90.4348 28.6007 91.0155 27.5765 92.0638 26.8495C93.1121 26.1225 94.4997 25.759 96.2286 25.759C97.9575 25.759 99.4394 26.1566 100.429 26.9499C101.419 27.7431 101.913 28.8999 101.913 30.422H101.909V30.4239ZM98.444 33.4814V33.2296H95.876C95.1445 33.2296 94.577 33.3754 94.1698 33.6669C93.7625 33.9585 93.5589 34.3731 93.5589 34.9089C93.5589 35.3595 93.7286 35.7192 94.0698 35.9861C94.4111 36.2531 94.8711 36.3875 95.4537 36.3875C96.3681 36.3875 97.0921 36.1243 97.6219 35.598C98.1536 35.0717 98.427 34.3655 98.4458 33.4795L98.444 33.4814Z" fill="white"/>
<path d="M116.195 38.7955H113.078L112.754 37.2412C112.305 37.777 111.781 38.1935 111.183 38.4945C110.584 38.7955 109.854 38.9451 108.989 38.9451C107.494 38.9451 106.272 38.4813 105.324 37.5536C104.375 36.6259 103.904 35.0773 103.904 32.9039V25.9104H107.418V32.4779C107.418 33.6479 107.622 34.5302 108.029 35.1227C108.436 35.7172 109.064 36.0125 109.911 36.0125C110.757 36.0125 111.474 35.6831 111.954 35.0224C112.435 34.3617 112.677 33.4378 112.677 32.2526V25.9104H116.191V38.7955H116.195Z" fill="white"/>
<path d="M122.153 21.2493V38.7955H118.638V21.2493H122.153Z" fill="white"/>
<path d="M123.299 25.9123H125.418V22.302H128.932V25.9123H131.849V28.896H128.932V34.5359C128.932 34.9865 129.027 35.314 129.219 35.5128C129.411 35.7135 129.73 35.8138 130.179 35.8138H131.998V38.7975H129.081C126.638 38.7975 125.416 37.5688 125.416 35.1133V28.896H123.297V25.9104L123.299 25.9123Z" fill="white"/>
<path d="M19.5627 28.6006C19.2025 28.2068 18.899 27.8509 18.6633 27.5404C18.4314 27.2356 18.2485 26.9383 18.1241 26.6525C18.0016 26.3666 17.9374 26.0769 17.9374 25.7911C17.9374 25.4692 18.0072 25.1758 18.1411 24.924C18.2768 24.6703 18.4691 24.4715 18.7142 24.3352C18.9574 24.1989 19.2346 24.1288 19.54 24.1288C19.8605 24.1288 20.1471 24.1989 20.3885 24.3352C20.6317 24.4715 20.8334 24.6684 20.9842 24.9221C21.1294 25.1587 21.2199 25.4465 21.2614 25.7967H24.8776C24.8512 24.8596 24.623 24.0285 24.1913 23.3299C23.752 22.6162 23.1298 22.052 22.3417 21.6506C21.5536 21.2512 20.6109 21.0486 19.54 21.0486C18.4691 21.0486 17.4906 21.2549 16.6422 21.6658C15.7956 22.0747 15.1244 22.6427 14.6512 23.3469C14.178 24.0512 13.9366 24.8748 13.9366 25.7948C13.9366 26.2379 14.0026 26.6828 14.129 27.1144C14.2572 27.548 14.4457 27.9758 14.6927 28.3866L14.8058 28.5703L14.7417 28.6081C14.3477 28.8429 13.9819 29.1061 13.6538 29.3919C13.043 29.9201 12.5641 30.5222 12.2341 31.1791C11.9042 31.8342 11.7383 32.5384 11.7383 33.2692C11.7383 34.4297 12.0004 35.4521 12.5188 36.304C13.0354 37.156 13.7783 37.8262 14.7285 38.2938C15.6806 38.7652 16.8213 39.0037 18.1166 39.0037C19.2553 39.0037 20.347 38.7179 21.3594 38.1537C21.8421 37.883 22.3097 37.5516 22.7471 37.1673L22.7999 37.1238L24.3647 38.769H29.1423L19.5683 28.6044L19.5627 28.6006ZM20.7429 35.0867C20.6826 35.1302 20.6241 35.1738 20.56 35.2135C19.9322 35.6281 19.2214 35.8364 18.4484 35.8364C17.8187 35.8364 17.2662 35.7152 16.81 35.4767C16.3481 35.2363 15.9993 34.9012 15.7692 34.4828C15.5411 34.0681 15.4242 33.5778 15.4242 33.0307C15.4242 32.5668 15.5336 32.1503 15.7466 31.7944C15.9578 31.4404 16.2576 31.1431 16.6384 30.9103C16.6818 30.8838 16.7157 30.8667 16.7478 30.8478L16.7949 30.8213L20.8108 35.0356L20.7429 35.0829V35.0867Z" fill="white"/>
<path d="M23.5581 31.0563L24.6252 28.792H27.3534L25.4567 33.0801L23.5581 31.0563Z" fill="#FF4438"/>
</svg>
